<!-- icon666.com - MILLIONS vector ICONS FREE -->
<svg viewBox="0 0 48 48" xmlns="http://www.w3.org/2000/svg">
    <g id="Filter">
        <path d="m27.2 40.6-7.2 5.4v-18h8v11a2 2 0 0 1 -.8 1.6z" fill="#ef9d3a"
              style="fill: rgb(179, 179, 179);"></path>
        <path d="m26 28v13.5l1.2-.9a2 2 0 0 0 .8-1.6v-11z" fill="#dd8628" style="fill: rgb(153, 153, 153);"></path>
        <path d="m28 29h-8l-11.2-14.9333a4 4 0 0 1 -.8-2.4v-5.6667h32v5.6667a4 4 0 0 1 -.8 2.4z" fill="#ffbc5a"
              style="fill: rgb(207, 207, 207);"></path>
        <path d="m38 6v5.6666a4 4 0 0 1 -.8 2.4l-11.2 14.9334h2l11.2-14.9333a4 4 0 0 0 .8-2.4v-5.6667z" fill="#ef9d3a"
              style="fill: rgb(179, 179, 179);"></path>
        <rect fill="#ef9d3a" height="5" rx="1" width="36" x="6" y="2" style="fill: rgb(179, 179, 179);"></rect>
        <path d="m41 2h-2a1 1 0 0 1 1 1v3a1 1 0 0 1 -1 1h2a1 1 0 0 0 1-1v-3a1 1 0 0 0 -1-1z" fill="#dd8628"
              style="fill: rgb(153, 153, 153);"></path>
    </g>
</svg>