<svg xmlns="http://www.w3.org/2000/svg" width="154" height="40" fill="none" style="">
    <rect id="backgroundrect" width="100%" height="100%" x="0" y="0" fill="none" stroke="none"/>


    <defs>
        <linearGradient id="paint0_linear" x1="0.4344717860221863" y1="-1.103008508682251" x2="0.5055974721908569"
                        y2="0.7834268808364868">
            <stop stop-color="#02C786"/>
            <stop offset="1" stop-color="#178E82"/>
        </linearGradient>
        <linearGradient id="paint1_linear" x1="0.19055530428886414" y1="0.38912510871887207" x2="1.9089306592941284"
                        y2="1.2033895254135132">
            <stop stop-color="#03C947"/>
            <stop offset="1" stop-color="#028BA0"/>
        </linearGradient>
        <linearGradient id="paint2_linear" x1="-0.6939504742622375" y1="-0.2532433867454529" x2="0.8408010005950928"
                        y2="0.6810721755027771">
            <stop stop-color="#03C947"/>
            <stop offset="1" stop-color="#028BA0"/>
        </linearGradient>
        <linearGradient id="paint3_linear" x1="0.5117632746696472" y1="0.23308050632476807" x2="0.6180902123451233"
                        y2="2.0711894035339355">
            <stop stop-color="#02C786"/>
            <stop offset="1" stop-color="#178E82"/>
        </linearGradient>
    </defs>
    <g class="currentLayer" style="">
        <title>Layer 1</title>
        <path d="M47.6605 4.3938H51.8348V10.0798H52.5938L57.1476 4.3938H62.0809L55.8194 11.6908L62.3656 19.4616H57.2425L52.5938 13.6809H51.8348V19.4616H47.6605V4.3938Z"
              fill="#f4f4f4" id="svg_1" class="selected" fill-opacity="1"/>
        <path d="M61.7963 11.8804C61.7963 7.52112 65.3066 4.01477 69.8604 4.01477C74.5091 4.01477 77.9245 7.42635 77.9245 11.7856C77.9245 16.0501 74.4142 19.5564 69.8604 19.5564C65.2117 19.6512 61.7963 16.2396 61.7963 11.8804ZM73.7501 11.8804C73.7501 9.60597 72.2322 7.80542 69.9553 7.80542C67.6784 7.80542 66.1604 9.60597 66.1604 11.7856C66.1604 13.9652 67.6784 15.8605 70.0501 15.8605C72.2322 15.9553 73.7501 14.06 73.7501 11.8804Z"
              fill="#f4f4f4" id="svg_2" class="selected" fill-opacity="1"/>
        <path d="M80.3911 15.671L85.3244 4.29907H89.8783L94.8116 15.671H96.709V22.5889H92.8193V19.3669H82.3834V22.5889H78.5886V15.671H80.3911ZM84.6603 15.8605H90.4475L87.5065 8.56355L84.6603 15.8605Z"
              fill="#f4f4f4" id="svg_3" class="selected" fill-opacity="1"/>
        <path d="M48.4195 33.8661C47.5656 33.0132 47.1862 31.876 47.1862 30.1703C47.1862 26.5691 48.5144 24.7686 51.3605 24.2948L54.2067 23.8209L54.4913 25.4319L51.74 25.9058C49.9374 26.1901 49.1785 27.043 48.8938 28.5592C49.5579 27.8959 50.5067 27.422 51.74 27.422C54.0169 27.422 55.3451 28.9383 55.3451 31.0232C55.3451 33.2028 53.7323 35.0033 51.2656 35.0033C49.9374 34.9086 48.9887 34.5295 48.4195 33.8661ZM53.5426 31.0232C53.5426 29.6964 52.6887 28.7488 51.3605 28.7488C49.8426 28.7488 48.9887 29.7912 48.9887 31.0232C48.9887 32.3499 49.9374 33.3923 51.2656 33.3923C52.5938 33.3923 53.5426 32.4446 53.5426 31.0232Z"
              fill="#f4f4f4" id="svg_4" class="selected" fill-opacity="1"/>
        <path d="M56.6733 30.9283C56.6733 28.6539 58.2862 26.8534 60.4682 26.8534C62.9349 26.8534 64.1682 28.8435 64.1682 31.0231C64.1682 31.2126 64.1682 31.3074 64.1682 31.4969H58.4759C58.6656 32.7289 59.6144 33.487 60.7528 33.487C61.6067 33.487 62.2708 33.2027 62.84 32.5394L63.8836 33.487C63.1246 34.3399 62.081 34.9085 60.6579 34.9085C58.4759 34.9085 56.6733 33.2975 56.6733 30.9283ZM62.4605 30.3597C62.3656 29.2225 61.7015 28.2749 60.4682 28.2749C59.3297 28.2749 58.5708 29.1278 58.4759 30.3597H62.4605Z"
              fill="#f4f4f4" id="svg_5" class="selected" fill-opacity="1"/>
        <path d="M66.1604 32.6342C66.9194 33.2028 67.8681 33.4871 68.8168 33.4871C69.9553 33.4871 70.5245 33.108 70.5245 32.4446C70.5245 31.876 69.9553 31.497 68.9117 31.497H67.204V30.1703H68.9117C69.8604 30.1703 70.3347 29.7912 70.3347 29.2226C70.3347 28.654 69.7655 28.2749 68.8168 28.2749C67.8681 28.2749 67.1091 28.5592 66.3501 29.1278L65.4014 27.9906C66.3501 27.2325 67.3937 26.7587 68.9117 26.7587C70.904 26.7587 72.1373 27.6116 72.1373 28.9383C72.1373 29.886 71.5681 30.3598 70.8091 30.7388C71.6629 30.9284 72.4219 31.5917 72.4219 32.5394C72.4219 33.7714 71.1886 34.8138 68.9117 34.8138C67.4886 34.8138 66.3501 34.4347 65.4014 33.6766L66.1604 32.6342Z"
              fill="#f4f4f4" id="svg_6" class="selected" fill-opacity="1"/>
        <path d="M73.6553 30.9283C73.6553 28.6539 75.4579 26.8534 77.8297 26.8534C80.2015 26.8534 82.004 28.6539 82.004 30.9283C82.004 33.108 80.2015 35.0033 77.8297 35.0033C75.4579 34.9085 73.6553 33.108 73.6553 30.9283ZM80.2015 30.9283C80.2015 29.5068 79.2528 28.3697 77.8297 28.3697C76.4066 28.3697 75.4579 29.5068 75.4579 30.8336C75.4579 32.1603 76.4066 33.2975 77.8297 33.2975C79.2528 33.3923 80.2015 32.2551 80.2015 30.9283Z"
              fill="#f4f4f4" id="svg_7" class="selected" fill-opacity="1"/>
        <path d="M83.8065 26.9482H91.0167V34.7191H89.2142V28.5593H85.6091V34.7191H83.8065V26.9482V26.9482Z"
              fill="#f4f4f4" id="svg_8" class="selected" fill-opacity="1"/>
        <path d="M92.6296 32.5394C92.6296 30.8336 93.9578 29.9807 95.8552 29.9807C96.7091 29.9807 97.3732 30.0755 97.9424 30.265V30.0755C97.9424 28.9383 97.2783 28.3697 96.045 28.3697C95.1911 28.3697 94.527 28.5592 93.768 28.8435L93.2937 27.422C94.1475 27.043 95.0014 26.7587 96.2347 26.7587C97.3732 26.7587 98.227 27.043 98.7963 27.6116C99.3655 28.1802 99.6501 29.0331 99.6501 29.9807V34.6243H97.9424V33.6766C97.3732 34.34 96.6142 34.8138 95.3809 34.8138C93.9578 34.9086 92.6296 34.0557 92.6296 32.5394ZM98.0373 31.9708V31.4022C97.5629 31.2127 96.9937 31.1179 96.2347 31.1179C95.0963 31.1179 94.4322 31.5917 94.4322 32.4446C94.4322 33.2028 95.0963 33.5818 95.9501 33.5818C97.0886 33.5818 98.0373 32.9185 98.0373 31.9708Z"
              fill="#f4f4f4" id="svg_9" class="selected" fill-opacity="1"/>
        <path d="M101.453 30.9283C101.453 28.6539 103.16 26.8534 105.532 26.8534C106.955 26.8534 107.904 27.422 108.663 28.1801L107.524 29.4121C106.955 28.8435 106.386 28.4644 105.532 28.4644C104.204 28.4644 103.255 29.6016 103.255 30.9283C103.255 32.3498 104.204 33.3923 105.627 33.3923C106.481 33.3923 107.05 33.0132 107.619 32.4446L108.663 33.487C107.904 34.3399 106.955 34.9085 105.437 34.9085C103.16 34.9085 101.453 33.108 101.453 30.9283Z"
              fill="#f4f4f4" id="svg_10" class="selected" fill-opacity="1"/>
        <path d="M110.276 26.9482H112.078V29.9808H115.683V26.9482H117.486V34.7191H115.683V31.5918H112.078V34.7191H110.276V26.9482Z"
              fill="#f4f4f4" id="svg_11" class="selected" fill-opacity="1"/>
        <path d="M119.288 30.9283C119.288 28.6539 121.091 26.8534 123.463 26.8534C125.835 26.8534 127.637 28.6539 127.637 30.9283C127.637 33.108 125.835 35.0033 123.463 35.0033C120.996 34.9085 119.288 33.108 119.288 30.9283ZM125.835 30.9283C125.835 29.5068 124.886 28.3697 123.463 28.3697C122.04 28.3697 121.091 29.5068 121.091 30.8336C121.091 32.1603 122.04 33.2975 123.463 33.2975C124.886 33.3923 125.835 32.2551 125.835 30.9283Z"
              fill="#f4f4f4" id="svg_12" class="selected" fill-opacity="1"/>
        <path d="M128.965 30.9283C128.965 28.6539 130.673 26.8534 133.045 26.8534C134.468 26.8534 135.417 27.422 136.176 28.1801L135.037 29.4121C134.468 28.8435 133.899 28.4644 133.045 28.4644C131.717 28.4644 130.768 29.6016 130.768 30.9283C130.768 32.3498 131.717 33.3923 133.14 33.3923C133.994 33.3923 134.563 33.0132 135.132 32.4446L136.176 33.487C135.417 34.3399 134.468 34.9085 132.95 34.9085C130.673 34.9085 128.965 33.108 128.965 30.9283Z"
              fill="#f4f4f4" id="svg_13" class="selected" fill-opacity="1"/>
        <path d="M139.781 28.5593H137.029V26.9482H144.334V28.5593H141.583V34.7191H139.781V28.5593V28.5593Z"
              fill="#f4f4f4" id="svg_14" class="selected" fill-opacity="1"/>
        <path d="M145.947 26.9482H147.75V31.9708L151.45 26.9482H153.158V34.7191H151.355V29.6017L147.56 34.7191H145.947V26.9482V26.9482Z"
              fill="#f4f4f4" id="svg_15" class="selected" fill-opacity="1"/>
        <path d="M19.6455 39.2401C18.9814 39.2401 18.3173 39.1453 17.6532 38.9558C14.4276 38.1977 11.961 35.5442 11.3917 32.3222C11.202 31.185 11.961 30.1426 13.0994 29.8583C14.2379 29.6687 15.2815 30.4269 15.5661 31.5641C15.8507 33.1751 17.084 34.5018 18.7917 34.8809C21.0686 35.4495 23.3455 34.028 23.9148 31.7536C24.1994 30.6164 24.0096 29.4792 23.4404 28.5315C22.8712 27.5839 21.9225 26.9205 20.784 26.6362C19.6455 26.3519 18.9814 25.2147 19.2661 24.0775C19.5507 22.9403 20.6891 22.277 21.8276 22.5613C26.3814 23.6985 29.1327 28.2472 27.9942 32.7012C26.9506 36.6814 23.4404 39.2401 19.6455 39.2401Z"
              fill="url(#paint0_linear)" id="svg_16"/>
        <path d="M8.54564 28.0577C7.88154 28.0577 7.21744 27.963 6.55334 27.7734C1.9995 26.6362 -0.751771 22.0875 0.386687 17.6335C1.14566 14.4114 3.80206 11.9475 7.02769 11.3789C8.16615 11.1893 9.20974 11.9475 9.49435 13.0847C9.68409 14.2219 8.92512 15.2643 7.78666 15.5486C6.17385 15.8329 4.84565 17.0649 4.46616 18.7706C3.80206 20.9503 5.22513 23.2247 7.50205 23.7933C8.64051 24.0776 9.77897 23.888 10.7277 23.3194C11.6764 22.7508 12.3405 21.8032 12.6251 20.666C12.9097 19.5288 14.0482 18.8654 15.1866 19.1497C16.3251 19.434 16.9892 20.5712 16.7046 21.7084C16.1354 23.888 14.8072 25.7833 12.9097 26.9205C11.5815 27.6787 10.0636 28.0577 8.54564 28.0577Z"
              fill="url(#paint1_linear)" id="svg_17"/>
        <path d="M30.7445 11.2362C31.4086 11.2362 32.0727 11.331 32.7368 11.5205C37.2907 12.6577 40.0419 17.2065 38.9035 21.6605C38.1445 24.8825 35.4881 27.3465 32.2625 27.9151C31.124 28.1046 30.0804 27.3465 29.7958 26.2093C29.6061 25.0721 30.365 24.0297 31.5035 23.7454C33.1163 23.4611 34.4445 22.2291 34.824 20.5233C35.4881 18.3437 34.065 16.0693 31.7881 15.5007C30.6496 15.2164 29.5112 15.4059 28.5625 15.9745C27.6138 16.5431 26.9497 17.4908 26.665 18.628C26.3804 19.7652 25.242 20.4285 24.1035 20.1442C22.9651 19.8599 22.301 18.7227 22.5856 17.5855C23.1548 15.4059 24.483 13.5106 26.3804 12.3734C27.7086 11.6153 29.2266 11.2362 30.7445 11.2362Z"
              fill="url(#paint2_linear)" id="svg_18"/>
        <path d="M11.2366 8.54521C11.2366 7.88111 11.3314 7.21701 11.5209 6.55291C12.6581 1.99908 17.2069 -0.752198 21.6609 0.38626C24.883 1.14523 27.3469 3.80163 27.9155 7.02727C28.105 8.16572 27.3469 9.20931 26.2097 9.49392C25.0725 9.68367 24.0301 8.9247 23.7458 7.78624C23.4615 6.17342 22.2295 4.84522 20.5237 4.46573C18.3441 3.80163 16.0697 5.22471 15.5011 7.50162C15.2168 8.64008 15.4064 9.77854 15.975 10.7273C16.5436 11.676 17.4912 12.3401 18.6284 12.6247C19.7656 12.9093 20.429 14.0478 20.1447 15.1862C19.8604 16.3247 18.7232 16.9888 17.586 16.7042C15.4064 16.1349 13.511 14.8067 12.3738 12.9093C11.6157 11.5811 11.2366 10.0632 11.2366 8.54521Z"
              fill="url(#paint3_linear)" id="svg_19"/>
    </g>
</svg>