<?xml version="1.0"?>
<svg width="154" height="40" xmlns="http://www.w3.org/2000/svg" xmlns:svg="http://www.w3.org/2000/svg">
    <defs>
        <linearGradient id="paint0_linear" x1="0.43" x2="0.51" y1="-1.1" y2="0.78">
            <stop stop-color="#02C786"/>
            <stop offset="1" stop-color="#178E82"/>
        </linearGradient>
        <linearGradient id="paint1_linear" x1="0.19" x2="1.91" y1="0.39" y2="1.2">
            <stop stop-color="#03C947"/>
            <stop offset="1" stop-color="#028BA0"/>
        </linearGradient>
        <linearGradient id="paint2_linear" x1="-0.69" x2="0.84" y1="-0.25" y2="0.68">
            <stop stop-color="#03C947"/>
            <stop offset="1" stop-color="#028BA0"/>
        </linearGradient>
        <linearGradient id="paint3_linear" x1="0.51" x2="0.62" y1="0.23" y2="2.07">
            <stop stop-color="#02C786"/>
            <stop offset="1" stop-color="#178E82"/>
        </linearGradient>
    </defs>
    <g class="layer">
        <title>Layer 1</title>
        <path d="m47.66,4.39l4.17,0l0,5.69l0.76,0l4.56,-5.69l4.93,0l-6.26,7.3l6.55,7.77l-5.13,0l-4.65,-5.78l-0.76,0l0,5.78l-4.17,0l0,-15.07z"
              fill="#f7f4f4" id="svg_1"/>
        <path d="m61.8,11.88c0,-4.36 3.51,-7.87 8.06,-7.87c4.65,0 8.06,3.42 8.06,7.78c0,4.26 -3.51,7.77 -8.06,7.77c-4.65,0.09 -8.06,-3.32 -8.06,-7.68zm11.95,0c0,-2.27 -1.52,-4.07 -3.79,-4.07c-2.28,0 -3.8,1.8 -3.8,3.98c0,2.18 1.52,4.07 3.89,4.07c2.18,0.1 3.7,-1.8 3.7,-3.98z"
              fill="#f7f4f4" id="svg_2"/>
        <path d="m80.39,15.67l4.93,-11.37l4.56,0l4.93,11.37l1.9,0l0,6.92l-3.89,0l0,-3.22l-10.44,0l0,3.22l-3.79,0l0,-6.92l1.8,0zm4.27,0.19l5.79,0l-2.94,-7.3l-2.85,7.3z"
              fill="#f7f4f4" id="svg_3" transform="matrix(1 0 0 1 0 0)"/>
        <path d="m48.42,33.87c-0.85,-0.86 -1.23,-1.99 -1.23,-3.7c0,-3.6 1.32,-5.4 4.17,-5.88l2.85,-0.47l0.28,1.61l-2.75,0.48c-1.8,0.28 -2.56,1.13 -2.85,2.65c0.67,-0.66 1.62,-1.14 2.85,-1.14c2.28,0 3.61,1.52 3.61,3.6c0,2.18 -1.62,3.98 -4.08,3.98c-1.33,-0.09 -2.28,-0.47 -2.85,-1.13zm5.12,-2.85c0,-1.32 -0.85,-2.27 -2.18,-2.27c-1.52,0 -2.37,1.04 -2.37,2.27c0,1.33 0.95,2.37 2.28,2.37c1.32,0 2.27,-0.95 2.27,-2.37z"
              fill="#f7f4f4" id="svg_4" transform="matrix(1 0 0 1 0 0)"/>
        <path d="m56.67,30.93c0,-2.28 1.62,-4.08 3.8,-4.08c2.46,0 3.7,1.99 3.7,4.17c0,0.19 0,0.29 0,0.48l-5.69,0c0.19,1.23 1.13,1.99 2.27,1.99c0.86,0 1.52,-0.29 2.09,-0.95l1.04,0.95c-0.76,0.85 -1.8,1.42 -3.22,1.42c-2.18,0 -3.99,-1.61 -3.99,-3.98zm5.79,-0.57c-0.09,-1.14 -0.76,-2.09 -1.99,-2.09c-1.14,0 -1.9,0.86 -1.99,2.09l3.98,0z"
              fill="#f7f4f4" id="svg_5" transform="matrix(1 0 0 1 0 0)"/>
        <path d="m66.16,32.63c0.76,0.57 1.71,0.86 2.66,0.86c1.14,0 1.7,-0.38 1.7,-1.05c0,-0.56 -0.56,-0.94 -1.61,-0.94l-1.71,0l0,-1.33l1.71,0c0.95,0 1.42,-0.38 1.42,-0.95c0,-0.57 -0.56,-0.95 -1.51,-0.95c-0.95,0 -1.71,0.29 -2.47,0.86l-0.95,-1.14c0.95,-0.76 1.99,-1.23 3.51,-1.23c1.99,0 3.23,0.85 3.23,2.18c0,0.95 -0.57,1.42 -1.33,1.8c0.85,0.19 1.61,0.85 1.61,1.8c0,1.23 -1.23,2.27 -3.51,2.27c-1.42,0 -2.56,-0.38 -3.51,-1.13l0.76,-1.05z"
              fill="#f7f4f4" id="svg_6" transform="matrix(1 0 0 1 0 0)"/>
        <path d="m73.66,30.93c0,-2.28 1.8,-4.08 4.17,-4.08c2.37,0 4.17,1.8 4.17,4.08c0,2.18 -1.8,4.07 -4.17,4.07c-2.37,-0.09 -4.17,-1.89 -4.17,-4.07zm6.54,0c0,-1.42 -0.95,-2.56 -2.37,-2.56c-1.42,0 -2.37,1.14 -2.37,2.46c0,1.33 0.95,2.47 2.37,2.47c1.42,0.09 2.37,-1.04 2.37,-2.37z"
              fill="#f7f4f4" id="svg_7" transform="matrix(1 0 0 1 0 0)"/>
        <path d="m83.81,26.95l7.21,0l0,7.77l-1.81,0l0,-6.16l-3.6,0l0,6.16l-1.8,0l0,-7.77l0,0z" fill="#f7f4f4" id="svg_8"
              transform="matrix(1 0 0 1 0 0)"/>
        <path d="m92.63,32.54c0,-1.71 1.33,-2.56 3.23,-2.56c0.85,0 1.51,0.1 2.08,0.29l0,-0.19c0,-1.14 -0.66,-1.71 -1.89,-1.71c-0.86,0 -1.52,0.19 -2.28,0.47l-0.48,-1.42c0.86,-0.38 1.71,-0.66 2.94,-0.66c1.14,0 2,0.28 2.57,0.85c0.57,0.57 0.85,1.42 0.85,2.37l0,4.64l-1.71,0l0,-0.94c-0.57,0.66 -1.33,1.13 -2.56,1.13c-1.42,0.1 -2.75,-0.75 -2.75,-2.27zm5.41,-0.57l0,-0.57c-0.48,-0.19 -1.05,-0.28 -1.81,-0.28c-1.13,0 -1.8,0.47 -1.8,1.32c0,0.76 0.67,1.14 1.52,1.14c1.14,0 2.09,-0.66 2.09,-1.61z"
              fill="#f7f4f4" id="svg_9" transform="matrix(1 0 0 1 0 0)"/>
        <path d="m101.45,30.93c0,-2.28 1.71,-4.08 4.08,-4.08c1.42,0 2.37,0.57 3.13,1.33l-1.14,1.23c-0.57,-0.57 -1.13,-0.95 -1.99,-0.95c-1.33,0 -2.28,1.14 -2.28,2.47c0,1.42 0.95,2.46 2.38,2.46c0.85,0 1.42,-0.38 1.99,-0.95l1.04,1.05c-0.76,0.85 -1.71,1.42 -3.22,1.42c-2.28,0 -3.99,-1.8 -3.99,-3.98z"
              fill="#f7f4f4" id="svg_10" transform="matrix(1 0 0 1 0 0)"/>
        <path d="m110.28,26.95l1.8,0l0,3.03l3.6,0l0,-3.03l1.81,0l0,7.77l-1.81,0l0,-3.13l-3.6,0l0,3.13l-1.8,0l0,-7.77z"
              fill="#f7f4f4" id="svg_11" transform="matrix(1 0 0 1 0 0)"/>
        <path d="m119.29,30.93c0,-2.28 1.8,-4.08 4.17,-4.08c2.37,0 4.18,1.8 4.18,4.08c0,2.18 -1.81,4.07 -4.18,4.07c-2.46,-0.09 -4.17,-1.89 -4.17,-4.07zm6.54,0c0,-1.42 -0.94,-2.56 -2.37,-2.56c-1.42,0 -2.37,1.14 -2.37,2.46c0,1.33 0.95,2.47 2.37,2.47c1.43,0.09 2.37,-1.04 2.37,-2.37z"
              fill="#f7f4f4" id="svg_12" transform="matrix(1 0 0 1 0 0)"/>
        <path d="m128.97,30.93c0,-2.28 1.7,-4.08 4.07,-4.08c1.43,0 2.38,0.57 3.14,1.33l-1.14,1.23c-0.57,-0.57 -1.14,-0.95 -2,-0.95c-1.32,0 -2.27,1.14 -2.27,2.47c0,1.42 0.95,2.46 2.37,2.46c0.85,0 1.42,-0.38 1.99,-0.95l1.05,1.05c-0.76,0.85 -1.71,1.42 -3.23,1.42c-2.28,0 -3.98,-1.8 -3.98,-3.98z"
              fill="#f7f4f4" id="svg_13" transform="matrix(1 0 0 1 0 0)"/>
        <path d="m139.78,28.56l-2.75,0l0,-1.61l7.3,0l0,1.61l-2.75,0l0,6.16l-1.8,0l0,-6.16l0,0z" fill="#f7f4f4"
              id="svg_14" transform="matrix(1 0 0 1 0 0)"/>
        <path d="m145.95,26.95l1.8,0l0,5.02l3.7,-5.02l1.71,0l0,7.77l-1.81,0l0,-5.12l-3.79,5.12l-1.61,0l0,-7.77l0,0z"
              fill="#f7f4f4" id="svg_15" transform="matrix(1 0 0 1 0 0)"/>
        <path d="m19.65,39.24c-0.67,0 -1.33,-0.09 -2,-0.28c-3.22,-0.76 -5.69,-3.42 -6.26,-6.64c-0.19,-1.14 0.57,-2.18 1.71,-2.46c1.14,-0.19 2.18,0.57 2.47,1.7c0.28,1.62 1.51,2.94 3.22,3.32c2.28,0.57 4.56,-0.85 5.12,-3.13c0.29,-1.13 0.1,-2.27 -0.47,-3.22c-0.57,-0.95 -1.52,-1.61 -2.66,-1.89c-1.13,-0.29 -1.8,-1.43 -1.51,-2.56c0.28,-1.14 1.42,-1.8 2.56,-1.52c4.55,1.14 7.3,5.69 6.16,10.14c-1.04,3.98 -4.55,6.54 -8.34,6.54z"
              fill="url(#paint0_linear)" id="svg_16"/>
        <path d="m8.55,28.06c-0.67,0 -1.33,-0.1 -2,-0.29c-4.55,-1.13 -7.3,-5.68 -6.16,-10.14c0.76,-3.22 3.41,-5.68 6.64,-6.25c1.14,-0.19 2.18,0.57 2.46,1.7c0.19,1.14 -0.56,2.18 -1.7,2.47c-1.62,0.28 -2.94,1.51 -3.32,3.22c-0.67,2.18 0.76,4.45 3.03,5.02c1.14,0.29 2.28,0.1 3.23,-0.47c0.95,-0.57 1.61,-1.52 1.9,-2.65c0.28,-1.14 1.42,-1.8 2.56,-1.52c1.14,0.28 1.8,1.42 1.51,2.56c-0.56,2.18 -1.89,4.07 -3.79,5.21c-1.33,0.76 -2.85,1.14 -4.36,1.14z"
              fill="url(#paint1_linear)" id="svg_17"/>
        <path d="m30.74,11.24c0.67,0 1.33,0.09 2,0.28c4.55,1.14 7.3,5.69 6.16,10.14c-0.76,3.22 -3.41,5.69 -6.64,6.26c-1.14,0.18 -2.18,-0.57 -2.46,-1.71c-0.19,-1.14 0.56,-2.18 1.7,-2.46c1.62,-0.29 2.94,-1.52 3.32,-3.23c0.67,-2.18 -0.76,-4.45 -3.03,-5.02c-1.14,-0.28 -2.28,-0.09 -3.23,0.47c-0.95,0.57 -1.61,1.52 -1.9,2.66c-0.28,1.14 -1.42,1.8 -2.56,1.51c-1.13,-0.28 -1.8,-1.42 -1.51,-2.55c0.56,-2.18 1.89,-4.08 3.79,-5.22c1.33,-0.75 2.85,-1.13 4.36,-1.13z"
              fill="url(#paint2_linear)" id="svg_18"/>
        <path d="m11.24,8.55c0,-0.67 0.09,-1.33 0.28,-2c1.14,-4.55 5.69,-7.3 10.14,-6.16c3.22,0.76 5.69,3.41 6.26,6.64c0.19,1.14 -0.57,2.18 -1.71,2.46c-1.14,0.19 -2.18,-0.57 -2.46,-1.7c-0.29,-1.62 -1.52,-2.94 -3.23,-3.32c-2.18,-0.67 -4.45,0.75 -5.02,3.03c-0.28,1.14 -0.09,2.28 0.47,3.23c0.57,0.95 1.52,1.61 2.66,1.89c1.14,0.29 1.8,1.43 1.51,2.57c-0.28,1.13 -1.42,1.8 -2.55,1.51c-2.18,-0.57 -4.08,-1.89 -5.22,-3.79c-0.75,-1.33 -1.13,-2.85 -1.13,-4.36z"
              fill="url(#paint3_linear)" id="svg_19"/>
    </g>
</svg>